<?xml version="1.0" encoding="UTF-8" standalone="no"?>
<svg
   width="2500"
   height="500"
   viewBox="0 0 192.756 38.5512"
   version="1.1"
   id="svg2"
   sodipodi:docname="hyundai.svg"
   inkscape:version="1.4 (86a8ad7, 2024-10-11)"
   xmlns:inkscape="http://www.inkscape.org/namespaces/inkscape"
   xmlns:sodipodi="http://sodipodi.sourceforge.net/DTD/sodipodi-0.dtd"
   xmlns="http://www.w3.org/2000/svg"
   xmlns:svg="http://www.w3.org/2000/svg">
  <defs
     id="defs2" />
  <sodipodi:namedview
     id="namedview2"
     pagecolor="#ffffff"
     bordercolor="#000000"
     borderopacity="0.25"
     inkscape:showpageshadow="2"
     inkscape:pageopacity="0.0"
     inkscape:pagecheckerboard="0"
     inkscape:deskcolor="#d1d1d1"
     inkscape:zoom="0.3228"
     inkscape:cx="1250"
     inkscape:cy="258.6741"
     inkscape:window-width="2560"
     inkscape:window-height="1009"
     inkscape:window-x="1016"
     inkscape:window-y="79"
     inkscape:window-maximized="1"
     inkscape:current-layer="svg2" />
  <g
     fill-rule="evenodd"
     clip-rule="evenodd"
     id="g2"
     transform="translate(-0.47771004,-76.911316)">
    <path
       fill="#ffffff"
       d="M 0,0 H 192.756 V 192.756 H 0 Z"
       id="path1" />
    <path
       d="m 2.919,109.426 v -26.72 h 7.17 V 92.917 H 21.526 V 82.706 h 7.169 v 26.72 H 21.526 V 98.618 H 10.089 v 10.808 z m 27.803,-26.72 11.352,16.083 v 10.637 h 7.169 V 98.789 L 60.509,82.706 H 52.23 l -6.571,9.53 -6.658,-9.53 z m 31.814,0 v 26.72 h 18.436 c 2.816,0 7.254,-1.106 7.169,-6.808 V 82.706 h -7.169 v 18.04 c 0,2.042 -1.109,2.808 -3.158,2.808 H 69.706 V 82.706 Z m 30.022,26.72 v -26.72 h 18.436 c 2.816,0 7.254,1.106 7.168,6.808 v 19.912 h -7.168 v -18.04 c 0,-2.042 -1.109,-2.808 -3.158,-2.808 h -8.109 v 20.848 z m 97.448,0 v -26.72 h -7.17 v 26.72 z M 141.188,82.706 H 122.58 v 26.72 h 18.607 c 3.5,0 7.17,-1.957 7.17,-6.808 V 88.833 c 0,-2.723 -0.597,-6.127 -7.169,-6.127 z m 0,18.295 c 0,0.937 -0.256,2.213 -2.049,2.298 H 129.75 V 88.833 h 9.561 c 1.193,0 1.877,0.851 1.877,1.957 z m 18.244,-18.295 c -4.695,0 -6.828,2.212 -6.828,6.127 v 20.593 h 7.17 v -6.468 h 11.266 v 6.468 h 7.17 v -26.72 z m 11.607,14.783 h -11.266 v -6.212 c 0,-1.787 0.682,-2.383 2.219,-2.468 h 9.047 z"
       id="path2" />
  </g>
</svg>
