<?xml version="1.0" encoding="UTF-8" standalone="no"?>
<!-- Generator: Adobe Illustrator 25.0.0, SVG Export Plug-In . SVG Version: 6.00 Build 0)  -->

<svg
   version="1.1"
   id="katman_1"
   x="0px"
   y="0px"
   viewBox="0 0 180 40"
   xml:space="preserve"
   sodipodi:docname="kia.svg"
   width="180"
   height="40"
   inkscape:version="1.4 (86a8ad7, 2024-10-11)"
   xmlns:inkscape="http://www.inkscape.org/namespaces/inkscape"
   xmlns:sodipodi="http://sodipodi.sourceforge.net/DTD/sodipodi-0.dtd"
   xmlns="http://www.w3.org/2000/svg"
   xmlns:svg="http://www.w3.org/2000/svg"><defs
   id="defs1" /><sodipodi:namedview
   id="namedview1"
   pagecolor="#ffffff"
   bordercolor="#000000"
   borderopacity="0.25"
   inkscape:showpageshadow="2"
   inkscape:pageopacity="0.0"
   inkscape:pagecheckerboard="0"
   inkscape:deskcolor="#d1d1d1"
   inkscape:zoom="7.3363636"
   inkscape:cx="82.125155"
   inkscape:cy="44.095415"
   inkscape:window-width="2560"
   inkscape:window-height="1009"
   inkscape:window-x="1016"
   inkscape:window-y="79"
   inkscape:window-maximized="1"
   inkscape:current-layer="katman_1" />
<path
   d="m 95.861833,30.087485 c 0,0.2 0.1,0.3 0.2,0.3 0.1,0 0.2,0 0.3,-0.1 L 133.36183,6.2874847 c 0.6,-0.4 1.4,-0.7 2.2,-0.7 h 8.1 c 1.1,-0.1 2,0.8 2.1,1.9 V 23.187485 c 0,1.9 -0.4,3 -2.1,4 l -9.9,5.9 c -0.1,0.1 -0.2,0.1 -0.3,0.1 -0.1,0 -0.2,-0.1 -0.2,-0.4 v -18.1 c 0,-0.2 -0.1,-0.3 -0.2,-0.3 -0.1,0 -0.2,0 -0.3,0.1 l -27.1,17.6 c -0.6,0.4 -1.4,0.6 -2.1,0.6 H 85.561833 c -1.1,0.1 -2,-0.8 -2.1,-1.9 V 8.1874847 c 0,-0.1 -0.1,-0.3 -0.2,-0.3 -0.1,0 -0.2,0 -0.3,0.1 l -17.7,10.8000003 c -0.1,0 -0.2,0.2 -0.2,0.3 0,0.1 0.1,0.2 0.2,0.3 l 12.8,12.8 c 0.1,0.1 0.2,0.3 0.3,0.4 0,0.2 -0.2,0.2 -0.4,0.2 h -11.7 c -0.8,0.1 -1.5,-0.1 -2.1,-0.6 l -7.7,-7.7 c -0.1,-0.2 -0.1,-0.2 -0.2,-0.2 -0.1,0 -0.2,0 -0.2,0.1 l -13,7.8 c -0.6,0.4 -1.4,0.6 -2.1,0.6 H 29.161834 c -1.1,0.1 -2,-0.8 -2.1,-1.9 v -15.5 c -0.2,-1.6 0.6,-3.2 2.1,-4 l 9.899999,-5.9000003 c 0,-0.2 0.1,-0.2 0.2,-0.2 0.1,0 0.2,0.2 0.2,0.5 V 26.287485 c 0,0.2 0.1,0.3 0.2,0.3 0.1,0 0.2,-0.1 0.3,-0.1 l 33.6,-20.3000003 c 0.7,-0.4 1.4,-0.7 2.2,-0.6 h 18 c 1.1,-0.1 2,0.8 2.1,1.9 z"
   id="path1" />
</svg>
