<?xml version="1.0" encoding="UTF-8" standalone="no"?>
<svg
   width="2650"
   height="450"
   viewBox="0 0 204.32136 34.69608"
   version="1.1"
   id="svg2"
   sodipodi:docname="lexus.svg"
   inkscape:version="1.4 (86a8ad7, 2024-10-11)"
   xmlns:inkscape="http://www.inkscape.org/namespaces/inkscape"
   xmlns:sodipodi="http://sodipodi.sourceforge.net/DTD/sodipodi-0.dtd"
   xmlns="http://www.w3.org/2000/svg"
   xmlns:svg="http://www.w3.org/2000/svg">
  <defs
     id="defs2">
    <clipPath
       clipPathUnits="userSpaceOnUse"
       id="clipPath2">
      <rect
         style="fill:#000000;stroke-width:0.0771024"
         id="rect3"
         width="178.90242"
         height="32.484283"
         x="7.1656508"
         y="80.016434" />
    </clipPath>
  </defs>
  <sodipodi:namedview
     id="namedview2"
     pagecolor="#ffffff"
     bordercolor="#000000"
     borderopacity="0.25"
     inkscape:showpageshadow="2"
     inkscape:pageopacity="0.0"
     inkscape:pagecheckerboard="0"
     inkscape:deskcolor="#d1d1d1"
     inkscape:zoom="0.3228"
     inkscape:cx="1250"
     inkscape:cy="258.6741"
     inkscape:window-width="2560"
     inkscape:window-height="1009"
     inkscape:window-x="1016"
     inkscape:window-y="79"
     inkscape:window-maximized="1"
     inkscape:current-layer="svg2" />
  <g
     fill-rule="evenodd"
     clip-rule="evenodd"
     id="g2"
     clip-path="url(#clipPath2)"
     transform="translate(6.4490855,-78.822156)">
    <path
       fill="#ffffff"
       d="M 0,0 H 192.756 V 192.756 H 0 Z"
       id="path1" />
    <path
       d="m 8.504,82.353 v 19.046 c 0.059,5.336 3.635,9.674 13.249,9.674 h 13.433 v -5.281 H 21.752 c -4.451,-0.186 -4.354,-4.445 -4.354,-4.445 V 82.353 Z M 67.952,93.655 H 47.429 c 0.938,-5.875 4.896,-6.022 4.896,-6.022 H 67.951 V 81.982 H 52.047 c 0,0 -14.823,-0.093 -14.823,14.731 0,14.822 14.823,14.359 14.823,14.359 h 15.904 v -5.281 H 52.325 c 0,0 -4.081,-0.152 -4.937,-6.299 H 67.951 V 93.655 Z M 106.615,110.98 93.552,96.092 105.689,82.26 H 95.59 L 88.464,90.293 81.416,82.26 H 71.04 L 83.315,96.098 70.113,110.98 h 10.376 l 7.97,-9.084 8.058,9.084 z m 74.811,-29.298 h -24.227 c 0,0 -9.357,0 -9.357,8.338 0,8.337 9.357,8.8 12.322,8.8 h 10.654 c 0,0 3.613,0.465 3.613,2.965 0,2.502 -2.502,3.428 -3.52,3.428 h -20.939 v 5.838 h 24.553 c 0,0 9.727,0.186 9.727,-8.986 0,-9.172 -10.377,-8.802 -11.025,-8.802 h -12.691 c 0,0 -3.537,-0.284 -3.336,-3.521 0.186,-2.965 5.096,-2.594 5.096,-2.594 h 19.131 v -5.466 z m -54.787,29.326 c 17.719,0 17.197,-10.596 17.197,-10.596 V 82.173 h -9.121 v 17.11 c 0,0 -0.26,6.428 -8.25,6.428 -7.99,0 -8.252,-6.428 -8.252,-6.428 v -17.11 h -9.119 v 18.239 c 0,0 -0.521,10.596 17.197,10.596 z"
       id="path2" />
  </g>
</svg>
