<?xml version="1.0" encoding="utf-8"?>

<svg version="1.0" id="svgRoot" xmlns:svg="http://www.w3.org/2000/svg"
	 xmlns="http://www.w3.org/2000/svg" xmlns:xlink="http://www.w3.org/1999/xlink" x="0px" y="0px" viewBox="0 0 283.5 33"
	 style="enable-background:new 0 0 283.5 33;" xml:space="preserve">
<style type="text/css">
	.st0{fill-rule:evenodd;clip-rule:evenodd;}
</style>
<g>
	<g id="rootGroup">
		<path class="st0" d="M276.2,0v24.6L251.9,0h-9.4v33h7.3V8.3L274.2,33h9.2V0H276.2z M41.1,33V0h-7.3v24.6L9.4,0H0v33h7.3V8.3
			L31.8,33H41.1z M57.2,33h7.3V0h-7.3V33z M216.5,20.7h-16.3l8.2-13.1L216.5,20.7z M196.2,27.3h24.3L224,33h8.8L212.3,0h-7.9
			l-20.6,33h8.9L196.2,27.3z M110.2,33H79.6v-6.9h30c1.8,0,3.3-1.5,3.3-3.3c0-1.8-1.5-3.3-3.3-3.3H88.5c-5.4,0-9.8-4.4-9.8-9.8
			S83.1,0,88.5,0h29.5v6.7H89.1c-1.7,0-3.1,1.4-3.1,3.1s1.4,3.1,3.1,3.1h21c5.5,0,10.1,4.5,10.1,10.1C120.2,28.5,115.7,33,110.2,33z
			 M165.2,33h-30.5v-6.9h30c1.8,0,3.3-1.5,3.3-3.3c0-1.8-1.5-3.3-3.3-3.3h-21.1c-5.4,0-9.8-4.4-9.8-9.8s4.4-9.8,9.8-9.8h29.5v6.7
			h-28.9c-1.7,0-3.1,1.4-3.1,3.1s1.4,3.1,3.1,3.1h21c5.5,0,10.1,4.5,10.1,10.1C175.3,28.5,170.7,33,165.2,33z"/>
	</g>
	<svg:script>
		<![CDATA[                                  
var svgElement = document.getElementById("svgRoot"); 
var gElement = document.getElementById("rootGroup"); 
var b = gElement.getBBox();                            
svgElement.setAttribute("width", b.width);           
svgElement.setAttribute("height", b.height);         
svgElement.setAttribute("viewBox", [b.x,b.y,b.width,b.height]); 

			]]>
	</svg:script>
</g>
</svg>
