<?xml version="1.0" encoding="UTF-8" standalone="no"?>
<svg
   version="1.1"
   id="Layer_1"
   x="0px"
   y="0px"
   viewBox="0 0 750 150"
   enable-background="new 0 0 750 207"
   xml:space="preserve"
   sodipodi:docname="toyota.svg"
   width="750"
   height="150"
   inkscape:version="1.4 (86a8ad7, 2024-10-11)"
   xmlns:inkscape="http://www.inkscape.org/namespaces/inkscape"
   xmlns:sodipodi="http://sodipodi.sourceforge.net/DTD/sodipodi-0.dtd"
   xmlns="http://www.w3.org/2000/svg"
   xmlns:svg="http://www.w3.org/2000/svg"><defs
   id="defs17"><clipPath
     clipPathUnits="userSpaceOnUse"
     id="clipPath18"><rect
       style="fill:#000000;stroke-width:1.59226"
       id="rect18"
       width="535.18213"
       height="211.09271"
       x="214.19704"
       y="0.62086189" /></clipPath></defs><sodipodi:namedview
   id="namedview17"
   pagecolor="#ffffff"
   bordercolor="#000000"
   borderopacity="0.25"
   inkscape:showpageshadow="2"
   inkscape:pageopacity="0.0"
   inkscape:pagecheckerboard="0"
   inkscape:deskcolor="#d1d1d1"
   inkscape:zoom="1.6106667"
   inkscape:cx="462.85182"
   inkscape:cy="79.159768"
   inkscape:window-width="2560"
   inkscape:window-height="1009"
   inkscape:window-x="1016"
   inkscape:window-y="79"
   inkscape:window-maximized="1"
   inkscape:current-layer="Layer_1" />
<g
   id="g2"
   clip-path="url(#clipPath18)"
   transform="translate(-109.27152,-31.043046)">
	<rect
   y="0.373"
   fill="#eb0a1e"
   width="206.254"
   height="206.254"
   id="rect1"
   x="0" />
	<g
   id="g1">
		<path
   d="m 692.845,109.932 11.572,-30.343 11.554,30.343 z m 23.582,-47.573 h -24.031 l -33.581,82.275 h 20.818 l 7.648,-20.078 h 34.258 l 7.651,20.078 H 750 Z m -169.492,67.97 c -13.562,0 -24.536,-12.233 -24.536,-27.33 0,-15.099 10.974,-27.341 24.536,-27.341 13.538,0 24.529,12.242 24.529,27.341 0,15.097 -10.99,27.33 -24.529,27.33 m 0,-70.79 c -24.006,0 -43.467,19.459 -43.467,43.46 0,24 19.461,43.45 43.467,43.45 23.991,0 43.461,-19.449 43.461,-43.45 0,-24.002 -19.47,-43.46 -43.461,-43.46 m -171.492,70.79 c -13.538,0 -24.52,-12.233 -24.52,-27.33 0,-15.099 10.982,-27.341 24.52,-27.341 13.554,0 24.537,12.242 24.537,27.341 10e-4,15.097 -10.983,27.33 -24.537,27.33 m 0,-70.79 c -23.999,0 -43.442,19.459 -43.442,43.46 0,24 19.443,43.45 43.442,43.45 23.999,0 43.46,-19.449 43.46,-43.45 0,-24.002 -19.461,-43.46 -43.46,-43.46 m 107.419,2.82 -21.294,33.288 -21.311,-33.288 H 419.43 l 32.965,51.595 v 30.68 h 18.332 v -30.673 l 32.961,-51.602 z m 180.334,0 h -70.341 v 15.777 h 26.053 v 66.498 h 18.35 V 78.135 h 25.939 V 62.359 Z M 257.817,78.135 h 26.061 v 66.498 h 18.341 V 78.135 h 25.948 V 62.359 h -70.35 z"
   id="path1" />
	</g>
	<path
   fill="#ffffff"
   d="m 103.127,56.678 c -38.943,0 -68.751,20.082 -68.751,46.822 0,25.859 29.047,46.822 68.751,46.822 39.704,0 68.751,-20.963 68.751,-46.822 0,-26.74 -29.808,-46.822 -68.751,-46.822 z m 42.868,20.082 c 1.433,5.772 -5.291,12.987 -26.924,15.346 -1.441,-14.701 -5.799,-27.12 -13.026,-29.75 9.728,0.274 18.95,1.919 26.989,4.836 7.518,2.836 12.189,6.455 12.961,9.568 z m -32.044,26.514 c 0,18.626 -5.594,26.346 -10.824,26.346 -5.23,0 -10.824,-7.721 -10.824,-26.346 0,-0.065 0.001,-0.129 0.001,-0.194 3.476,0.294 7.094,0.448 10.823,0.448 3.729,0 7.347,-0.154 10.823,-0.448 0,0.065 10e-4,0.129 10e-4,0.194 z M 103.123,92.892 c -3.648,0 -7.022,-0.104 -10.142,-0.296 1.643,-12.179 6.008,-19.261 10.145,-19.261 4.138,0 8.502,7.081 10.145,19.26 -3.12,0.193 -6.496,0.297 -10.148,0.297 z M 60.252,76.76 c 0.769,-3.097 5.396,-6.695 12.847,-9.526 8.067,-2.944 17.334,-4.604 27.11,-4.879 -7.227,2.63 -11.586,15.05 -13.027,29.751 C 65.544,89.748 58.819,82.533 60.252,76.76 Z m -15.737,25.053 c 0,-7.885 2.641,-14.7 7.235,-20.342 0.595,10.455 14.737,18.252 34.902,20.989 -0.002,0.271 -0.003,0.542 -0.003,0.814 0,25.225 6.467,38.597 13.635,41.359 -30.783,-1.106 -55.769,-20.067 -55.769,-42.82 z m 61.328,42.824 c 7.218,-2.882 13.762,-17.23 13.762,-41.363 0,-0.271 -0.001,-0.543 -0.003,-0.814 20.165,-2.737 34.307,-10.534 34.902,-20.989 4.594,5.642 7.235,12.457 7.235,20.342 0,22.785 -25.055,41.765 -55.896,42.824 z"
   id="path2" />
</g>
<g
   id="g3">
</g>
<g
   id="g4">
</g>
<g
   id="g5">
</g>
<g
   id="g6">
</g>
<g
   id="g7">
</g>
<g
   id="g8">
</g>
<g
   id="g9">
</g>
<g
   id="g10">
</g>
<g
   id="g11">
</g>
<g
   id="g12">
</g>
<g
   id="g13">
</g>
<g
   id="g14">
</g>
<g
   id="g15">
</g>
<g
   id="g16">
</g>
<g
   id="g17">
</g>
</svg>
